<?xml version="1.0" encoding="UTF-8" ?>
<svg version="1.1" width="31" height="21" xmlns="http://www.w3.org/2000/svg" shape-rendering="crispEdges">
<rect x="11" y="1" width="1" height="1" fill="#99E550" />
<rect x="19" y="1" width="1" height="1" fill="#99E550" />
<rect x="6" y="2" width="1" height="1" fill="#99E550" />
<rect x="9" y="2" width="1" height="1" fill="#99E550" />
<rect x="10" y="2" width="1" height="1" fill="#6ABE30" />
<rect x="11" y="2" width="1" height="1" fill="#6ABE30" />
<rect x="19" y="2" width="1" height="1" fill="#6ABE30" />
<rect x="20" y="2" width="1" height="1" fill="#6ABE30" />
<rect x="21" y="2" width="1" height="1" fill="#99E550" />
<rect x="24" y="2" width="1" height="1" fill="#99E550" />
<rect x="5" y="3" width="1" height="1" fill="#99E550" />
<rect x="6" y="3" width="1" height="1" fill="#6ABE30" />
<rect x="8" y="3" width="1" height="1" fill="#99E550" />
<rect x="9" y="3" width="1" height="1" fill="#6ABE30" />
<rect x="10" y="3" width="1" height="1" fill="#37946E" />
<rect x="20" y="3" width="1" height="1" fill="#37946E" />
<rect x="21" y="3" width="1" height="1" fill="#6ABE30" />
<rect x="22" y="3" width="1" height="1" fill="#99E550" />
<rect x="24" y="3" width="1" height="1" fill="#6ABE30" />
<rect x="25" y="3" width="1" height="1" fill="#99E550" />
<rect x="4" y="4" width="1" height="1" fill="#99E550" />
<rect x="5" y="4" width="1" height="1" fill="#6ABE30" />
<rect x="6" y="4" width="1" height="1" fill="#37946E" />
<rect x="8" y="4" width="1" height="1" fill="#37946E" />
<rect x="9" y="4" width="1" height="1" fill="#37946E" />
<rect x="21" y="4" width="1" height="1" fill="#37946E" />
<rect x="22" y="4" width="1" height="1" fill="#37946E" />
<rect x="24" y="4" width="1" height="1" fill="#37946E" />
<rect x="25" y="4" width="1" height="1" fill="#6ABE30" />
<rect x="26" y="4" width="1" height="1" fill="#99E550" />
<rect x="5" y="5" width="1" height="1" fill="#37946E" />
<rect x="6" y="5" width="1" height="1" fill="#37946E" />
<rect x="7" y="5" width="1" height="1" fill="#37946E" />
<rect x="23" y="5" width="1" height="1" fill="#37946E" />
<rect x="24" y="5" width="1" height="1" fill="#37946E" />
<rect x="25" y="5" width="1" height="1" fill="#37946E" />
<rect x="3" y="6" width="1" height="1" fill="#99E550" />
<rect x="5" y="6" width="1" height="1" fill="#37946E" />
<rect x="6" y="6" width="1" height="1" fill="#37946E" />
<rect x="7" y="6" width="1" height="1" fill="#99E550" />
<rect x="8" y="6" width="1" height="1" fill="#6ABE30" />
<rect x="9" y="6" width="1" height="1" fill="#6ABE30" />
<rect x="21" y="6" width="1" height="1" fill="#6ABE30" />
<rect x="22" y="6" width="1" height="1" fill="#6ABE30" />
<rect x="23" y="6" width="1" height="1" fill="#99E550" />
<rect x="24" y="6" width="1" height="1" fill="#37946E" />
<rect x="25" y="6" width="1" height="1" fill="#37946E" />
<rect x="27" y="6" width="1" height="1" fill="#99E550" />
<rect x="2" y="7" width="1" height="1" fill="#6ABE30" />
<rect x="3" y="7" width="1" height="1" fill="#6ABE30" />
<rect x="4" y="7" width="1" height="1" fill="#99E550" />
<rect x="5" y="7" width="1" height="1" fill="#37946E" />
<rect x="6" y="7" width="1" height="1" fill="#99E550" />
<rect x="7" y="7" width="1" height="1" fill="#6ABE30" />
<rect x="8" y="7" width="1" height="1" fill="#37946E" />
<rect x="13" y="7" width="1" height="1" fill="#45283C" />
<rect x="14" y="7" width="1" height="1" fill="#45283C" />
<rect x="15" y="7" width="1" height="1" fill="#45283C" />
<rect x="16" y="7" width="1" height="1" fill="#45283C" />
<rect x="17" y="7" width="1" height="1" fill="#45283C" />
<rect x="22" y="7" width="1" height="1" fill="#37946E" />
<rect x="23" y="7" width="1" height="1" fill="#6ABE30" />
<rect x="24" y="7" width="1" height="1" fill="#99E550" />
<rect x="25" y="7" width="1" height="1" fill="#37946E" />
<rect x="26" y="7" width="1" height="1" fill="#99E550" />
<rect x="27" y="7" width="1" height="1" fill="#6ABE30" />
<rect x="28" y="7" width="1" height="1" fill="#6ABE30" />
<rect x="3" y="8" width="1" height="1" fill="#37946E" />
<rect x="4" y="8" width="1" height="1" fill="#6ABE30" />
<rect x="5" y="8" width="1" height="1" fill="#37946E" />
<rect x="7" y="8" width="1" height="1" fill="#37946E" />
<rect x="13" y="8" width="1" height="1" fill="#45283C" />
<rect x="14" y="8" width="1" height="1" fill="#D95763" />
<rect x="15" y="8" width="1" height="1" fill="#D95763" />
<rect x="16" y="8" width="1" height="1" fill="#D77BBA" />
<rect x="17" y="8" width="1" height="1" fill="#45283C" />
<rect x="23" y="8" width="1" height="1" fill="#37946E" />
<rect x="25" y="8" width="1" height="1" fill="#37946E" />
<rect x="26" y="8" width="1" height="1" fill="#6ABE30" />
<rect x="27" y="8" width="1" height="1" fill="#37946E" />
<rect x="4" y="9" width="1" height="1" fill="#37946E" />
<rect x="6" y="9" width="1" height="1" fill="#99E550" />
<rect x="13" y="9" width="1" height="1" fill="#45283C" />
<rect x="14" y="9" width="1" height="1" fill="#D95763" />
<rect x="15" y="9" width="1" height="1" fill="#D77BBA" />
<rect x="16" y="9" width="1" height="1" fill="#D77BBA" />
<rect x="17" y="9" width="1" height="1" fill="#45283C" />
<rect x="24" y="9" width="1" height="1" fill="#99E550" />
<rect x="26" y="9" width="1" height="1" fill="#37946E" />
<rect x="1" y="10" width="1" height="1" fill="#99E550" />
<rect x="2" y="10" width="1" height="1" fill="#6ABE30" />
<rect x="4" y="10" width="1" height="1" fill="#37946E" />
<rect x="5" y="10" width="1" height="1" fill="#99E550" />
<rect x="6" y="10" width="1" height="1" fill="#6ABE30" />
<rect x="7" y="10" width="1" height="1" fill="#6ABE30" />
<rect x="13" y="10" width="1" height="1" fill="#45283C" />
<rect x="14" y="10" width="1" height="1" fill="#D77BBA" />
<rect x="15" y="10" width="1" height="1" fill="#D77BBA" />
<rect x="16" y="10" width="1" height="1" fill="#D95763" />
<rect x="17" y="10" width="1" height="1" fill="#45283C" />
<rect x="18" y="10" width="1" height="1" fill="#45283C" />
<rect x="19" y="10" width="1" height="1" fill="#45283C" />
<rect x="20" y="10" width="1" height="1" fill="#45283C" />
<rect x="21" y="10" width="1" height="1" fill="#45283C" />
<rect x="23" y="10" width="1" height="1" fill="#6ABE30" />
<rect x="24" y="10" width="1" height="1" fill="#6ABE30" />
<rect x="25" y="10" width="1" height="1" fill="#99E550" />
<rect x="26" y="10" width="1" height="1" fill="#37946E" />
<rect x="28" y="10" width="1" height="1" fill="#6ABE30" />
<rect x="29" y="10" width="1" height="1" fill="#99E550" />
<rect x="2" y="11" width="1" height="1" fill="#37946E" />
<rect x="3" y="11" width="1" height="1" fill="#99E550" />
<rect x="4" y="11" width="1" height="1" fill="#37946E" />
<rect x="5" y="11" width="1" height="1" fill="#6ABE30" />
<rect x="6" y="11" width="1" height="1" fill="#37946E" />
<rect x="13" y="11" width="1" height="1" fill="#45283C" />
<rect x="14" y="11" width="1" height="1" fill="#D77BBA" />
<rect x="15" y="11" width="1" height="1" fill="#D95763" />
<rect x="16" y="11" width="1" height="1" fill="#D95763" />
<rect x="17" y="11" width="1" height="1" fill="#45283C" />
<rect x="18" y="11" width="1" height="1" fill="#6ABE30" />
<rect x="19" y="11" width="1" height="1" fill="#6ABE30" />
<rect x="20" y="11" width="1" height="1" fill="#99E550" />
<rect x="21" y="11" width="1" height="1" fill="#45283C" />
<rect x="24" y="11" width="1" height="1" fill="#37946E" />
<rect x="25" y="11" width="1" height="1" fill="#6ABE30" />
<rect x="26" y="11" width="1" height="1" fill="#37946E" />
<rect x="27" y="11" width="1" height="1" fill="#99E550" />
<rect x="28" y="11" width="1" height="1" fill="#37946E" />
<rect x="3" y="12" width="1" height="1" fill="#37946E" />
<rect x="4" y="12" width="1" height="1" fill="#6ABE30" />
<rect x="5" y="12" width="1" height="1" fill="#37946E" />
<rect x="6" y="12" width="1" height="1" fill="#99E550" />
<rect x="9" y="12" width="1" height="1" fill="#45283C" />
<rect x="10" y="12" width="1" height="1" fill="#45283C" />
<rect x="11" y="12" width="1" height="1" fill="#45283C" />
<rect x="12" y="12" width="1" height="1" fill="#45283C" />
<rect x="13" y="12" width="1" height="1" fill="#45283C" />
<rect x="14" y="12" width="1" height="1" fill="#D95763" />
<rect x="15" y="12" width="1" height="1" fill="#D95763" />
<rect x="16" y="12" width="1" height="1" fill="#D95763" />
<rect x="17" y="12" width="1" height="1" fill="#45283C" />
<rect x="18" y="12" width="1" height="1" fill="#6ABE30" />
<rect x="19" y="12" width="1" height="1" fill="#99E550" />
<rect x="20" y="12" width="1" height="1" fill="#99E550" />
<rect x="21" y="12" width="1" height="1" fill="#45283C" />
<rect x="24" y="12" width="1" height="1" fill="#99E550" />
<rect x="25" y="12" width="1" height="1" fill="#37946E" />
<rect x="26" y="12" width="1" height="1" fill="#6ABE30" />
<rect x="27" y="12" width="1" height="1" fill="#37946E" />
<rect x="5" y="13" width="1" height="1" fill="#37946E" />
<rect x="6" y="13" width="1" height="1" fill="#6ABE30" />
<rect x="7" y="13" width="1" height="1" fill="#99E550" />
<rect x="9" y="13" width="1" height="1" fill="#45283C" />
<rect x="10" y="13" width="1" height="1" fill="#5B6EE1" />
<rect x="11" y="13" width="1" height="1" fill="#5B6EE1" />
<rect x="12" y="13" width="1" height="1" fill="#639BFF" />
<rect x="13" y="13" width="1" height="1" fill="#45283C" />
<rect x="14" y="13" width="1" height="1" fill="#D95763" />
<rect x="15" y="13" width="1" height="1" fill="#D95763" />
<rect x="16" y="13" width="1" height="1" fill="#D95763" />
<rect x="17" y="13" width="1" height="1" fill="#45283C" />
<rect x="18" y="13" width="1" height="1" fill="#99E550" />
<rect x="19" y="13" width="1" height="1" fill="#99E550" />
<rect x="20" y="13" width="1" height="1" fill="#6ABE30" />
<rect x="21" y="13" width="1" height="1" fill="#45283C" />
<rect x="23" y="13" width="1" height="1" fill="#99E550" />
<rect x="24" y="13" width="1" height="1" fill="#6ABE30" />
<rect x="25" y="13" width="1" height="1" fill="#37946E" />
<rect x="2" y="14" width="1" height="1" fill="#6ABE30" />
<rect x="3" y="14" width="1" height="1" fill="#99E550" />
<rect x="5" y="14" width="1" height="1" fill="#37946E" />
<rect x="6" y="14" width="1" height="1" fill="#37946E" />
<rect x="7" y="14" width="1" height="1" fill="#6ABE30" />
<rect x="9" y="14" width="1" height="1" fill="#45283C" />
<rect x="10" y="14" width="1" height="1" fill="#5B6EE1" />
<rect x="11" y="14" width="1" height="1" fill="#639BFF" />
<rect x="12" y="14" width="1" height="1" fill="#639BFF" />
<rect x="13" y="14" width="1" height="1" fill="#45283C" />
<rect x="14" y="14" width="1" height="1" fill="#D95763" />
<rect x="15" y="14" width="1" height="1" fill="#D95763" />
<rect x="16" y="14" width="1" height="1" fill="#D95763" />
<rect x="17" y="14" width="1" height="1" fill="#45283C" />
<rect x="18" y="14" width="1" height="1" fill="#99E550" />
<rect x="19" y="14" width="1" height="1" fill="#6ABE30" />
<rect x="20" y="14" width="1" height="1" fill="#6ABE30" />
<rect x="21" y="14" width="1" height="1" fill="#45283C" />
<rect x="23" y="14" width="1" height="1" fill="#6ABE30" />
<rect x="24" y="14" width="1" height="1" fill="#37946E" />
<rect x="25" y="14" width="1" height="1" fill="#37946E" />
<rect x="27" y="14" width="1" height="1" fill="#99E550" />
<rect x="28" y="14" width="1" height="1" fill="#6ABE30" />
<rect x="2" y="15" width="1" height="1" fill="#37946E" />
<rect x="3" y="15" width="1" height="1" fill="#6ABE30" />
<rect x="4" y="15" width="1" height="1" fill="#99E550" />
<rect x="5" y="15" width="1" height="1" fill="#37946E" />
<rect x="7" y="15" width="1" height="1" fill="#37946E" />
<rect x="9" y="15" width="1" height="1" fill="#45283C" />
<rect x="10" y="15" width="1" height="1" fill="#639BFF" />
<rect x="11" y="15" width="1" height="1" fill="#639BFF" />
<rect x="12" y="15" width="1" height="1" fill="#5B6EE1" />
<rect x="13" y="15" width="1" height="1" fill="#45283C" />
<rect x="14" y="15" width="1" height="1" fill="#D95763" />
<rect x="15" y="15" width="1" height="1" fill="#D95763" />
<rect x="16" y="15" width="1" height="1" fill="#D95763" />
<rect x="17" y="15" width="1" height="1" fill="#45283C" />
<rect x="18" y="15" width="1" height="1" fill="#6ABE30" />
<rect x="19" y="15" width="1" height="1" fill="#6ABE30" />
<rect x="20" y="15" width="1" height="1" fill="#6ABE30" />
<rect x="21" y="15" width="1" height="1" fill="#45283C" />
<rect x="23" y="15" width="1" height="1" fill="#37946E" />
<rect x="25" y="15" width="1" height="1" fill="#37946E" />
<rect x="26" y="15" width="1" height="1" fill="#99E550" />
<rect x="27" y="15" width="1" height="1" fill="#6ABE30" />
<rect x="28" y="15" width="1" height="1" fill="#37946E" />
<rect x="3" y="16" width="1" height="1" fill="#37946E" />
<rect x="4" y="16" width="1" height="1" fill="#6ABE30" />
<rect x="5" y="16" width="1" height="1" fill="#6ABE30" />
<rect x="6" y="16" width="1" height="1" fill="#37946E" />
<rect x="9" y="16" width="1" height="1" fill="#45283C" />
<rect x="10" y="16" width="1" height="1" fill="#639BFF" />
<rect x="11" y="16" width="1" height="1" fill="#5B6EE1" />
<rect x="12" y="16" width="1" height="1" fill="#5B6EE1" />
<rect x="13" y="16" width="1" height="1" fill="#45283C" />
<rect x="14" y="16" width="1" height="1" fill="#D95763" />
<rect x="15" y="16" width="1" height="1" fill="#D95763" />
<rect x="16" y="16" width="1" height="1" fill="#D95763" />
<rect x="17" y="16" width="1" height="1" fill="#45283C" />
<rect x="18" y="16" width="1" height="1" fill="#6ABE30" />
<rect x="19" y="16" width="1" height="1" fill="#6ABE30" />
<rect x="20" y="16" width="1" height="1" fill="#6ABE30" />
<rect x="21" y="16" width="1" height="1" fill="#45283C" />
<rect x="24" y="16" width="1" height="1" fill="#37946E" />
<rect x="25" y="16" width="1" height="1" fill="#6ABE30" />
<rect x="26" y="16" width="1" height="1" fill="#6ABE30" />
<rect x="27" y="16" width="1" height="1" fill="#37946E" />
<rect x="4" y="17" width="1" height="1" fill="#37946E" />
<rect x="7" y="17" width="1" height="1" fill="#37946E" />
<rect x="9" y="17" width="1" height="1" fill="#45283C" />
<rect x="10" y="17" width="1" height="1" fill="#45283C" />
<rect x="11" y="17" width="1" height="1" fill="#45283C" />
<rect x="12" y="17" width="1" height="1" fill="#45283C" />
<rect x="13" y="17" width="1" height="1" fill="#45283C" />
<rect x="14" y="17" width="1" height="1" fill="#45283C" />
<rect x="15" y="17" width="1" height="1" fill="#45283C" />
<rect x="16" y="17" width="1" height="1" fill="#45283C" />
<rect x="17" y="17" width="1" height="1" fill="#45283C" />
<rect x="18" y="17" width="1" height="1" fill="#45283C" />
<rect x="19" y="17" width="1" height="1" fill="#45283C" />
<rect x="20" y="17" width="1" height="1" fill="#45283C" />
<rect x="21" y="17" width="1" height="1" fill="#45283C" />
<rect x="23" y="17" width="1" height="1" fill="#37946E" />
<rect x="26" y="17" width="1" height="1" fill="#37946E" />
<rect x="8" y="18" width="1" height="1" fill="#37946E" />
<rect x="22" y="18" width="1" height="1" fill="#37946E" />
<rect x="9" y="19" width="1" height="1" fill="#37946E" />
<rect x="21" y="19" width="1" height="1" fill="#37946E" />
</svg>